<svg version="1" xmlns="http://www.w3.org/2000/svg" width="112" height="112" viewBox="0 0 84.000000 84.000000"><path d="M67.8 3.1c-3.4 3.5-3.6 7.7-.5 10 2.5 1.8 6.7.9 6.7-1.4 0-.8.7-2 1.5-2.7 2.7-2.2 1.8-4-2-4-1.9 0-3.5.4-3.5 1 0 .5.5 1 1 1 1.5 0 1.2 4.8-.2 5.3-3.9 1.3-5.3-4.5-2.1-8.3 2.1-2.4 7.5-2.7 9.7-.4 2.1 2 2.2 8.4.1 8.4-.8 0-1.5-.5-1.5-1 0-.6-.4-1-1-1-1.5 0-1.2 2.6.5 4 1.3 1.1 1.9.9 3.5-.8 2.9-3 2.5-6.8-.9-10.3-3.8-3.7-7.6-3.7-11.3.2zM16.5 14.5c-4.9 5.2-9.1 9.8-9.3 10.4-.2.6 5.7 7.1 13.1 14.6L33.8 53h8c6.5 0 8.4.4 10.3 2l2.4 1.9-16.7.1H21.1L13 49c-4.4-4.4-8-8.5-8-9 0-.6-.7-1-1.5-1C2.3 39 2 40.8 2 49.5V60l6 5.7c3.3 3.2 6 6.3 6 6.9 0 2.1 2.8 2.4 19.1 2.4 8.7 0 15.9.4 15.9.8s-.9 1.4-2 2.2c-4.3 3.1-.8 5.9 7.5 6h6.1l7.2-7.3c9.9-10 9.9-11.5-.6-21.9-4.2-4.3-8.2-8.3-8.9-9l-2.5-2.5c-.7-.7-1.9-1.9-2.6-2.8-1-1.1-3.3-1.5-9.8-1.5-6.4 0-8.9-.4-10.1-1.5-.8-.9-1.4-1.7-1.2-1.8.2-.1 7.9 0 17 .3l16.6.5 6.7 6.7c3.7 3.8 6.9 6.8 7.1 6.8.3 0 .5-4.3.5-9.6v-9.5l-5.2-5.2c-2.9-2.9-6.3-5.8-7.5-6.5-1.6-.8-7.4-1.2-18.5-1.2H32.6l4-4.3c2.8-2.9 3.9-4.9 3.6-6.5-.3-2.1-.8-2.2-7.5-2.1l-7.2.1-9 9.3zM70 16c0 .5 1.6 1 3.5 1s3.5-.5 3.5-1c0-.6-1.6-1-3.5-1s-3.5.4-3.5 1z"/></svg>